<svg xmlns="http://www.w3.org/2000/svg" viewBox="0 0 500 500"><g id="freepik--background-simple--inject-87"><path d="M432.43,118.89S353,28,237.15,40.78,109.2,184.21,74.86,215.86s-60.61,63.3-55.22,131.31S42.8,450.78,42.8,450.78H436.47s43.1-99.57,39.73-197.21S432.43,118.89,432.43,118.89Z" style="fill:#747474"></path><path d="M432.43,118.89S353,28,237.15,40.78,109.2,184.21,74.86,215.86s-60.61,63.3-55.22,131.31S42.8,450.78,42.8,450.78H436.47s43.1-99.57,39.73-197.21S432.43,118.89,432.43,118.89Z" style="fill:#fff;opacity:0.7000000000000001"></path></g><g id="freepik--Clocks--inject-87"><g style="opacity:0.30000000000000004"><rect x="169.24" y="30.22" width="6.15" height="11.27" style="fill:none;stroke:#000;stroke-linejoin:round"></rect><rect x="153.62" y="34.41" width="6.15" height="11.27" transform="translate(0.97 83.71) rotate(-30)" style="fill:none;stroke:#000;stroke-linejoin:round"></rect><rect x="142.18" y="45.85" width="6.15" height="11.27" transform="matrix(0.5, -0.87, 0.87, 0.5, 28.05, 151.54)" style="fill:none;stroke:#000;stroke-linejoin:round"></rect><rect x="138" y="61.47" width="6.15" height="11.27" transform="translate(73.97 208.17) rotate(-90)" style="fill:none;stroke:#000;stroke-linejoin:round"></rect><rect x="142.18" y="77.09" width="6.15" height="11.27" transform="translate(146.24 249.89) rotate(-120)" style="fill:none;stroke:#000;stroke-linejoin:round"></rect><rect x="153.62" y="88.53" width="6.15" height="11.27" transform="translate(245.32 254.06) rotate(-150)" style="fill:none;stroke:#000;stroke-linejoin:round"></rect><rect x="169.24" y="92.72" width="6.15" height="11.27" transform="translate(344.64 196.7) rotate(180)" style="fill:none;stroke:#000;stroke-linejoin:round"></rect><rect x="184.87" y="88.53" width="6.15" height="11.27" transform="translate(397.79 81.74) rotate(150)" style="fill:none;stroke:#000;stroke-linejoin:round"></rect><rect x="196.31" y="77.09" width="6.15" height="11.27" transform="matrix(-0.5, 0.87, -0.87, -0.5, 370.71, -48.58)" style="fill:none;stroke:#000;stroke-linejoin:round"></rect><rect x="200.49" y="61.47" width="6.15" height="11.27" transform="translate(270.67 -136.46) rotate(90)" style="fill:none;stroke:#000;stroke-linejoin:round"></rect><rect x="196.31" y="45.85" width="6.15" height="11.27" transform="translate(144.27 -146.93) rotate(60)" style="fill:none;stroke:#000;stroke-linejoin:round"></rect><rect x="184.87" y="34.41" width="6.15" height="11.27" transform="translate(45.2 -88.6) rotate(30)" style="fill:none;stroke:#000;stroke-linejoin:round"></rect><polyline points="159.31 61.86 172.32 67.1 172.32 86.02" style="fill:none;stroke:#000;stroke-linejoin:round;stroke-width:4px"></polyline><line x1="169.68" y1="69.15" x2="151.67" y2="82.57" style="fill:none;stroke:#000;stroke-linejoin:round;stroke-width:0.75px"></line><line x1="177.15" y1="63.59" x2="169.68" y2="69.15" style="fill:none;stroke:#000;stroke-linejoin:round;stroke-width:2px"></line></g><g style="opacity:0.30000000000000004"><rect x="130.47" y="232.9" width="6.15" height="11.27" style="fill:none;stroke:#000;stroke-linejoin:round"></rect><rect x="114.85" y="237.08" width="6.15" height="11.27" transform="translate(-105.56 91.48) rotate(-30)" style="fill:none;stroke:#000;stroke-linejoin:round"></rect><rect x="103.41" y="248.52" width="6.15" height="11.27" transform="translate(-166.86 219.3) rotate(-60)" style="fill:none;stroke:#000;stroke-linejoin:round"></rect><rect x="99.22" y="264.14" width="6.15" height="11.27" transform="translate(-167.48 372.07) rotate(-90)" style="fill:none;stroke:#000;stroke-linejoin:round"></rect><rect x="103.41" y="279.77" width="6.15" height="11.27" transform="matrix(-0.5, -0.87, 0.87, -0.5, -87.44, 520.32)" style="fill:none;stroke:#000;stroke-linejoin:round"></rect><rect x="114.85" y="291.2" width="6.15" height="11.27" transform="translate(71.62 612.87) rotate(-150)" style="fill:none;stroke:#000;stroke-linejoin:round"></rect><rect x="130.47" y="295.39" width="6.15" height="11.27" transform="translate(267.09 602.05) rotate(180)" style="fill:none;stroke:#000;stroke-linejoin:round"></rect><rect x="146.09" y="291.2" width="6.15" height="11.27" transform="translate(426.77 479.33) rotate(150)" style="fill:none;stroke:#000;stroke-linejoin:round"></rect><rect x="157.53" y="279.77" width="6.15" height="11.27" transform="translate(488.07 289.01) rotate(120)" style="fill:none;stroke:#000;stroke-linejoin:round"></rect><rect x="161.72" y="264.14" width="6.15" height="11.27" transform="translate(434.57 104.99) rotate(90)" style="fill:none;stroke:#000;stroke-linejoin:round"></rect><rect x="157.53" y="248.52" width="6.15" height="11.27" transform="translate(300.41 -12.01) rotate(60)" style="fill:none;stroke:#000;stroke-linejoin:round"></rect><rect x="146.09" y="237.08" width="6.15" height="11.27" transform="translate(141.34 -42.06) rotate(30)" style="fill:none;stroke:#000;stroke-linejoin:round"></rect><polyline points="120.54 264.54 133.54 269.78 133.54 288.7" style="fill:none;stroke:#000;stroke-linejoin:round;stroke-width:4px"></polyline><line x1="130.9" y1="271.83" x2="112.9" y2="285.25" style="fill:none;stroke:#000;stroke-linejoin:round;stroke-width:0.75px"></line><line x1="138.37" y1="266.26" x2="130.9" y2="271.83" style="fill:none;stroke:#000;stroke-linejoin:round;stroke-width:2px"></line></g><g style="opacity:0.30000000000000004"><circle cx="330.83" cy="370.94" r="38.9" transform="translate(-77.51 87.56) rotate(-13.51)" style="fill:none;stroke:#000;stroke-linejoin:round"></circle><circle cx="330.83" cy="370.94" r="31.74" transform="translate(-137.17 538.34) rotate(-67.95)" style="fill:none;stroke:#000;stroke-linejoin:round"></circle><path d="M334.77,370.94a3.94,3.94,0,1,0-3.94,3.94A3.93,3.93,0,0,0,334.77,370.94Z" style="fill:none;stroke:#000;stroke-linejoin:round"></path><polyline points="327.71 368.08 311.62 363.88 326.89 370.94" style="fill:none;stroke:#263238;stroke-linejoin:round"></polyline><polyline points="328.44 374.12 330.09 397.71 333.01 374.85" style="fill:none;stroke:#000;stroke-linejoin:round"></polyline><line x1="330.83" y1="343.45" x2="330.83" y2="348.98" style="fill:none;stroke:#000;stroke-linejoin:round"></line><line x1="317.09" y1="347.13" x2="319.85" y2="351.92" style="fill:none;stroke:#000;stroke-linejoin:round"></line><line x1="307.02" y1="357.19" x2="311.81" y2="359.96" style="fill:none;stroke:#000;stroke-linejoin:round"></line><line x1="303.34" y1="370.94" x2="308.87" y2="370.94" style="fill:none;stroke:#000;stroke-linejoin:round"></line><line x1="307.02" y1="384.69" x2="311.81" y2="381.92" style="fill:none;stroke:#000;stroke-linejoin:round"></line><line x1="317.09" y1="394.75" x2="319.85" y2="389.96" style="fill:none;stroke:#000;stroke-linejoin:round"></line><line x1="330.83" y1="398.43" x2="330.83" y2="392.9" style="fill:none;stroke:#000;stroke-linejoin:round"></line><line x1="344.58" y1="394.75" x2="341.81" y2="389.96" style="fill:none;stroke:#000;stroke-linejoin:round"></line><line x1="354.64" y1="384.69" x2="349.85" y2="381.92" style="fill:none;stroke:#000;stroke-linejoin:round"></line><line x1="358.32" y1="370.94" x2="352.79" y2="370.94" style="fill:none;stroke:#000;stroke-linejoin:round"></line><line x1="354.64" y1="357.19" x2="349.85" y2="359.96" style="fill:none;stroke:#000;stroke-linejoin:round"></line><line x1="344.58" y1="347.13" x2="341.81" y2="351.92" style="fill:none;stroke:#000;stroke-linejoin:round"></line></g><g style="opacity:0.30000000000000004"><circle cx="349.55" cy="121.35" r="6.86" style="fill:none;stroke:#000;stroke-linejoin:round"></circle><polyline points="344.12 116.38 316.11 109.06 342.69 121.35" style="fill:none;stroke:#263238;stroke-linejoin:round"></polyline><polyline points="345.39 126.89 348.26 167.95 353.35 128.16" style="fill:none;stroke:#000;stroke-linejoin:round"></polyline><line x1="349.55" y1="73.49" x2="349.55" y2="83.12" style="fill:none;stroke:#000;stroke-linejoin:round"></line><line x1="325.62" y1="79.9" x2="330.44" y2="88.24" style="fill:none;stroke:#000;stroke-linejoin:round"></line><line x1="308.1" y1="97.42" x2="316.44" y2="102.24" style="fill:none;stroke:#000;stroke-linejoin:round"></line><line x1="301.69" y1="121.35" x2="311.32" y2="121.35" style="fill:none;stroke:#000;stroke-linejoin:round"></line><line x1="308.1" y1="145.28" x2="316.44" y2="140.46" style="fill:none;stroke:#000;stroke-linejoin:round"></line><line x1="325.62" y1="162.8" x2="330.44" y2="154.46" style="fill:none;stroke:#000;stroke-linejoin:round"></line><line x1="349.55" y1="169.21" x2="349.55" y2="159.58" style="fill:none;stroke:#000;stroke-linejoin:round"></line><line x1="373.48" y1="162.8" x2="368.67" y2="154.46" style="fill:none;stroke:#000;stroke-linejoin:round"></line><line x1="391" y1="145.28" x2="382.66" y2="140.46" style="fill:none;stroke:#000;stroke-linejoin:round"></line><line x1="397.41" y1="121.35" x2="387.78" y2="121.35" style="fill:none;stroke:#000;stroke-linejoin:round"></line><line x1="391" y1="97.42" x2="382.66" y2="102.24" style="fill:none;stroke:#000;stroke-linejoin:round"></line><line x1="373.48" y1="79.9" x2="368.67" y2="88.24" style="fill:none;stroke:#000;stroke-linejoin:round"></line></g></g><g id="freepik--hand-3--inject-87"><path d="M347,301.25s14.65-4.52,37.24-7.29,39.09,3.21,39.09,3.21-7,7.39-14.95,8.61-31.14,3.87-39.65,2S347,301.25,347,301.25Z" style="fill:#fff;stroke:#263238;stroke-linejoin:round"></path><path d="M412.65,311.07l3.85-69.56s27.67-29.58,33.81-33.12,7.75-15,8.84-20.76,2.34-13.2,8.2-20.25,6-8.78.25-9.3-16.07,3.82-18.9,9.39-5,10.05-8.21,13.84a48.75,48.75,0,0,1-7.61,6.89l-8.95-36.91s3.72-28.79,4.39-36.31,5.35-27.49,4-32.26-9.31-6.66-12.82,0-2.23,12-4.16,20.61-8.6,31.27-10,33.48a47.65,47.65,0,0,0-3,6.79s-2.42-11.35-3.59-17.86-2.56-43.34-5.47-50-11.14-5.65-11.71.7,1.09,20.49,1.58,28.11-1,23.8-2.72,30.63L378.73,142s-8-34.49-7.85-36.23.35-10.45-3.76-16.64-11.26-4.5-10.61,1.38,4.13,19,4.35,23.11.93,42,1.35,43.81-1.62,5.1-1.62,5.1-8.43-16.48-8.08-20.52-1.61-21.12-6.1-29.67-12.35-5.18-10.08,2,3.78,23.06,4.32,30.1,6.52,31.45,6.52,31.45,6,50,10.47,59.19a111.92,111.92,0,0,1,6.23,15.11l-2.76,83.64Z" style="fill:#fff;stroke:#263238;stroke-linejoin:round"></path><line x1="384.44" y1="173.67" x2="384.32" y2="177.48" style="fill:none;stroke:#263238;stroke-linejoin:round"></line><path d="M380.22,151.49s.06,5.83,1.54,8.87,2.9,6.67,2.9,6.67l-.15,4.69" style="fill:none;stroke:#263238;stroke-linejoin:round"></path><path d="M362.42,158.77a82.52,82.52,0,0,0-.59,8.82,10.15,10.15,0,0,0,2.17,6.47h0l.95,5.43" style="fill:none;stroke:#263238;stroke-linejoin:round"></path><polyline points="421.32 160.96 415.77 170.96 415.58 179.68" style="fill:none;stroke:#263238;stroke-linejoin:round"></polyline><path d="M402.18,153.57s-1.07,8.1.44,11.09,1.14,7.23,1.14,7.23" style="fill:none;stroke:#263238;stroke-linejoin:round"></path><line x1="432.88" y1="188.2" x2="433.92" y2="196.78" style="fill:none;stroke:#263238;stroke-linejoin:round"></line><path d="M347,301.25s5.42,2.37,33.43,2,42.9-6.05,42.9-6.05L421.89,339s-28.18,3.93-42.28,3.22-34.26-6.32-34.26-6.32Z" style="fill:#fff;stroke:#263238;stroke-linejoin:round"></path><path d="M417.91,450.78l15.36-.72-5-120.39a167.65,167.65,0,0,1-35.5,4.16c-31.62,0-50.3-6.26-50.3-6.26l-5.66,123.21Z" style="fill:#263238;stroke:#263238;stroke-linejoin:round"></path><path d="M358.93,352.57a4.64,4.64,0,1,1-3.54-5.53A4.64,4.64,0,0,1,358.93,352.57Z" style="fill:#fff;stroke:#263238;stroke-linejoin:round"></path><path d="M359.35,366.92a4.64,4.64,0,1,1-3.54-5.53A4.63,4.63,0,0,1,359.35,366.92Z" style="fill:#fff;stroke:#263238;stroke-linejoin:round"></path><path d="M359.78,381.27a4.64,4.64,0,1,1-3.55-5.53A4.65,4.65,0,0,1,359.78,381.27Z" style="fill:#fff;stroke:#263238;stroke-linejoin:round"></path></g><g id="freepik--wristwatch-3--inject-87"><path d="M401.65,253.8c1,.63,13.51,4.33,13.51,4v3.34h-8.83l-6.82-8.68Z" style="fill:#fff;stroke:#263238;stroke-linejoin:round"></path><path d="M401.65,286.33c1-.63,13.51-4.33,13.51-4V279h-8.83l-6.82,8.68Z" style="fill:#fff;stroke:#263238;stroke-linejoin:round"></path><rect x="413.02" y="261.24" width="4.95" height="17.7" style="fill:#fff;stroke:#263238;stroke-linejoin:round"></rect><line x1="413.39" y1="265.36" x2="417.41" y2="265.36" style="fill:none;stroke:#263238;stroke-linejoin:round;stroke-width:0.5px"></line><line x1="417.41" y1="275.01" x2="413.39" y2="275.01" style="fill:none;stroke:#263238;stroke-linejoin:round;stroke-width:0.5px"></line><line x1="415.8" y1="265.48" x2="415.8" y2="274.78" style="fill:none;stroke:#263238;stroke-linejoin:round;stroke-width:0.5px"></line><path d="M377.34,253.8c-1,.63-13.52,4.33-13.52,4v3.34h8.83l6.82-8.68S377.34,253.79,377.34,253.8Z" style="fill:#fff;stroke:#263238;stroke-linejoin:round"></path><path d="M377.34,286.33c-1-.63-13.52-4.33-13.52-4V279h8.83l6.82,8.68Z" style="fill:#fff;stroke:#263238;stroke-linejoin:round"></path><rect x="361.02" y="261.24" width="4.95" height="17.7" transform="translate(726.99 540.17) rotate(180)" style="fill:#fff;stroke:#263238;stroke-linejoin:round"></rect><line x1="365.6" y1="265.36" x2="361.58" y2="265.36" style="fill:none;stroke:#263238;stroke-linejoin:round;stroke-width:0.5px"></line><line x1="361.58" y1="275.01" x2="365.6" y2="275.01" style="fill:none;stroke:#263238;stroke-linejoin:round;stroke-width:0.5px"></line><line x1="363.18" y1="265.48" x2="363.18" y2="274.78" style="fill:none;stroke:#263238;stroke-linejoin:round;stroke-width:0.5px"></line><circle cx="389.52" cy="270.1" r="22.66" style="fill:#fff;stroke:#263238;stroke-linejoin:round"></circle><circle cx="389.52" cy="270.1" r="17.36" transform="translate(-10.21 524.85) rotate(-67.25)" style="fill:#263238"></circle><rect x="388.22" y="254.49" width="2.6" height="4.77" style="fill:#fff;stroke:#263238;stroke-linejoin:round"></rect><rect x="381.61" y="256.26" width="2.6" height="4.77" transform="translate(-78.02 226.1) rotate(-30)" style="fill:#fff;stroke:#263238;stroke-linejoin:round"></rect><rect x="376.77" y="261.1" width="2.6" height="4.77" transform="translate(-39.15 459.16) rotate(-60)" style="fill:#fff;stroke:#263238;stroke-linejoin:round"></rect><rect x="374.99" y="267.72" width="2.6" height="4.77" transform="translate(106.2 646.4) rotate(-90)" style="fill:#fff;stroke:#263238;stroke-linejoin:round"></rect><rect x="376.77" y="274.33" width="2.6" height="4.77" transform="translate(327.46 742.49) rotate(-120)" style="fill:#fff;stroke:#263238;stroke-linejoin:round"></rect><rect x="381.61" y="279.17" width="2.6" height="4.77" transform="translate(573.74 716.85) rotate(-150)" style="fill:#fff;stroke:#263238;stroke-linejoin:round"></rect><rect x="388.22" y="280.94" width="2.6" height="4.77" transform="translate(779.05 566.66) rotate(180)" style="fill:#fff;stroke:#263238;stroke-linejoin:round"></rect><rect x="394.84" y="279.17" width="2.6" height="4.77" transform="translate(879.98 327.33) rotate(150)" style="fill:#fff;stroke:#263238;stroke-linejoin:round"></rect><rect x="399.68" y="274.33" width="2.6" height="4.77" transform="translate(841.11 67.82) rotate(120)" style="fill:#fff;stroke:#263238;stroke-linejoin:round"></rect><rect x="401.45" y="267.72" width="2.6" height="4.77" transform="translate(672.85 -132.65) rotate(90)" style="fill:#fff;stroke:#263238;stroke-linejoin:round"></rect><rect x="399.68" y="261.1" width="2.6" height="4.77" transform="translate(428.67 -215.52) rotate(60)" style="fill:#fff;stroke:#263238;stroke-linejoin:round"></rect><rect x="394.84" y="256.26" width="2.6" height="4.77" transform="translate(182.39 -163.42) rotate(30)" style="fill:#fff;stroke:#263238;stroke-linejoin:round"></rect><circle cx="389.52" cy="270.1" r="11.84" transform="translate(-72.67 375.26) rotate(-47.56)" style="fill:#263238"></circle><path d="M387.43,267.88a3.41,3.41,0,1,0-3.41,3.41A3.41,3.41,0,0,0,387.43,267.88Z" style="fill:none;stroke:#fff;stroke-linejoin:round;stroke-width:0.5px"></path><path d="M398.39,267.88a3.41,3.41,0,1,0-3.41,3.41A3.41,3.41,0,0,0,398.39,267.88Z" style="fill:none;stroke:#fff;stroke-linejoin:round;stroke-width:0.5px"></path><path d="M393,275.59a3.41,3.41,0,1,0-3.41,3.41A3.41,3.41,0,0,0,393,275.59Z" style="fill:none;stroke:#fff;stroke-linejoin:round;stroke-width:0.5px"></path><polyline points="384.02 267.88 389.52 270.1 389.52 278.11" style="fill:none;stroke:#fff;stroke-linejoin:round"></polyline><line x1="388.41" y1="270.97" x2="380.78" y2="276.65" style="fill:none;stroke:#fff;stroke-linejoin:round;stroke-width:0.5px"></line><line x1="391.57" y1="268.61" x2="388.41" y2="270.97" style="fill:none;stroke:#fff;stroke-linejoin:round"></line><rect x="387.09" y="243.61" width="4.86" height="3.57" style="fill:#fff;stroke:#263238;stroke-linejoin:round"></rect><line x1="388.59" y1="243.95" x2="388.59" y2="246.6" style="fill:none;stroke:#263238;stroke-linejoin:round;stroke-width:0.5px"></line><line x1="390.21" y1="243.78" x2="390.21" y2="246.69" style="fill:none;stroke:#263238;stroke-linejoin:round;stroke-width:0.5px"></line><rect x="376.72" y="246.53" width="1.8" height="1.97" transform="translate(-71.67 202.78) rotate(-27.56)" style="fill:#fff;stroke:#263238;stroke-linejoin:round"></rect><rect x="376.96" y="247.69" width="2.75" height="2.37" transform="translate(-72.22 203.26) rotate(-27.56)" style="fill:#fff;stroke:#263238;stroke-linejoin:round"></rect><rect x="400.4" y="246.53" width="1.8" height="1.97" transform="translate(642.57 652.59) rotate(-152.44)" style="fill:#fff;stroke:#263238;stroke-linejoin:round"></rect><rect x="399.21" y="247.69" width="2.75" height="2.37" transform="translate(640.58 654.84) rotate(-152.44)" style="fill:#fff;stroke:#263238;stroke-linejoin:round"></rect><path d="M372.46,256.91a21.31,21.31,0,0,0-3.64,7.13c1,.5,2.14,1.13,3.45,1.84a17.71,17.71,0,0,1,3.62-7.17C374.54,258,373.41,257.39,372.46,256.91Zm17.06,30.95a18,18,0,0,1-3.63-.37v3.88a20.68,20.68,0,0,0,3.63.31,21.66,21.66,0,0,0,4.37-.44v-3.92A18,18,0,0,1,389.52,287.86Zm18.28-29.23-3.53,1.58a17.48,17.48,0,0,1,2.86,7.49l3.59-1.61A21.26,21.26,0,0,0,407.8,258.63Z" style="fill:#263238"></path></g><g id="freepik--hand-2--inject-87"><path d="M185.49,344.36s69.9-30.1,90.14-23c0,0-15.89,20.72-24.45,28.42s-40.46,4.2-43.06,4S186.3,349.65,185.49,344.36Z" style="fill:#fff;stroke:#263238;stroke-linejoin:round"></path><path d="M278.47,167.58s-4.63-23-10.45-33.46-2.3-29.11-4.7-36.93-8-11.29-13.72-7.38-6.45,14.33-6.49,16.07l-.05,1.74s-14,5.21-15.43,8.69l-1.39,3.48s-12.2,1.3-14.94,6.51-4.3,15.21-4.3,15.21-10.06,2.61-11.55,10-4.61,27.38-3.48,34.33,6.93,17.81,6.93,17.81,10.12,29.12,19.75,43.45c0,0-11.08,127.75-11.71,152.51l68.27-19.12s-6.8-125.13-7-134.69,26.52-51.71,28.38-56.48a29.91,29.91,0,0,0,1.72-16.52c-1.15-6.08-2.69-13.9-4.6-23.89s.73-11.73-2.22-15.21-5.42-9.12-8.73-15.64-9.6,1.74-9,10.86,4.86,13.9,5.64,17.38S278.47,167.58,278.47,167.58Z" style="fill:#fff;stroke:#263238;stroke-linejoin:round"></path><path d="M243.06,107.62s.32,21.72-1.56,27.37-2.91,11.73-2.12,14.78" style="fill:none;stroke:#263238;stroke-linejoin:round"></path><path d="M226.24,119.79s-4.27,31.28-6.14,36.49c0,0-2.35,7,.64,8.69" style="fill:none;stroke:#263238;stroke-linejoin:round"></path><path d="M207,141.51s-1.43,22.16-2.84,26.51" style="fill:none;stroke:#263238;stroke-linejoin:round"></path><line x1="280.74" y1="179.52" x2="281.53" y2="183.66" style="fill:none;stroke:#263238;stroke-linejoin:round"></line><line x1="278.47" y1="167.58" x2="279.88" y2="175" style="fill:none;stroke:#263238;stroke-linejoin:round"></line><path d="M290,450.78c-.69-5.49-11.73-93.87-12.72-105.78-1-12.28-1.69-23.67-1.69-23.67s-46.4,16.44-64.24,20.88-25.9,2.15-25.9,2.15l-.09,106.42Z" style="fill:#747474;stroke:#263238;stroke-linejoin:round"></path><path d="M193.07,347.06c-.39,31.94,2.8,63.94,2.76,95.94" style="fill:none;stroke:#263238;stroke-linejoin:round"></path><path d="M209,362.77a4.69,4.69,0,0,1-5,4.24,4.42,4.42,0,0,1-4.11-4.86,4.7,4.7,0,0,1,5-4.24A4.42,4.42,0,0,1,209,362.77Z" style="fill:none;stroke:#263238;stroke-linejoin:round"></path><path d="M210.11,381.17a4.7,4.7,0,0,1-5,4.24,4.42,4.42,0,0,1-4.11-4.86,4.7,4.7,0,0,1,5-4.24A4.42,4.42,0,0,1,210.11,381.17Z" style="fill:none;stroke:#263238;stroke-linejoin:round"></path><path d="M211.21,399.57a4.7,4.7,0,0,1-5,4.24,4.43,4.43,0,0,1-4.12-4.86,4.71,4.71,0,0,1,5-4.24A4.42,4.42,0,0,1,211.21,399.57Z" style="fill:none;stroke:#263238;stroke-linejoin:round"></path></g><g id="freepik--wristwatch-2--inject-87"><polygon points="260.31 284.69 264.39 284.54 264.21 270.92 260.14 271.08 260.31 284.69" style="fill:#fff;stroke:#263238;stroke-linejoin:round"></polygon><path d="M260.14,271.27l8.51-.33-3.42-1.83a2,2,0,0,0-2,.11Z" style="fill:#fff;stroke:#263238;stroke-linejoin:round"></path><path d="M260.31,284.69l8.51-.32-3.37,2.09a2,2,0,0,1-2,.05Z" style="fill:#fff;stroke:#263238;stroke-linejoin:round"></path><path d="M272,270.83l-7.78.25.17,13.46,7.78-.25a1,1,0,0,0,.94-1L273,271.74A.92.92,0,0,0,272,270.83Z" style="fill:#263238;stroke:#263238;stroke-linejoin:round"></path><polygon points="222.85 286.13 218.77 286.28 218.6 272.67 222.68 272.51 222.85 286.13" style="fill:#fff;stroke:#263238;stroke-linejoin:round"></polygon><path d="M222.68,272.7l-8.51.33,3.37-2.09a2,2,0,0,1,2-.05Z" style="fill:#fff;stroke:#263238;stroke-linejoin:round"></path><path d="M222.85,286.13l-8.51.32,3.42,1.84a2,2,0,0,0,2-.11Z" style="fill:#fff;stroke:#263238;stroke-linejoin:round"></path><path d="M214.17,273l4.43-.16.17,13.45-4.43.17a.92.92,0,0,1-1-.91L213.23,274A1,1,0,0,1,214.17,273Z" style="fill:#263238;stroke:#263238;stroke-linejoin:round"></path><path d="M257.75,290.89l-32.61,1.24a3.47,3.47,0,0,1-3.63-3.44l-.23-18.45a3.68,3.68,0,0,1,3.53-3.71l32.61-1.25a3.47,3.47,0,0,1,3.63,3.44l.24,18.45A3.7,3.7,0,0,1,257.75,290.89Z" style="fill:#fff;stroke:#263238;stroke-linejoin:round"></path><path d="M255.7,287.62l-28.6,1.1a1.43,1.43,0,0,1-1.49-1.42l-.21-16a1.52,1.52,0,0,1,1.46-1.53l28.6-1.1a1.44,1.44,0,0,1,1.5,1.42l.2,16A1.52,1.52,0,0,1,255.7,287.62Z" style="fill:#747474;stroke:#263238;stroke-linejoin:round"></path><path d="M255.87,279.15l-3.92,1v-.51l2.9-.73-2.92-.49V278l4,.72Z" style="fill:#fff"></path><path d="M255.85,277.36l-3.94.15V277l3.93-.15Z" style="fill:#fff"></path><line x1="227.82" y1="272.59" x2="230.06" y2="273.55" style="fill:none;stroke:#fff;stroke-linejoin:round;stroke-width:0.5px"></line><line x1="235.8" y1="270.73" x2="236.7" y2="271.96" style="fill:none;stroke:#fff;stroke-linejoin:round;stroke-width:0.5px"></line><line x1="241.31" y1="270.44" x2="241.34" y2="272.52" style="fill:none;stroke:#fff;stroke-linejoin:round;stroke-width:0.5px"></line><line x1="247.08" y1="270" x2="245.77" y2="271.98" style="fill:none;stroke:#fff;stroke-linejoin:round;stroke-width:0.5px"></line><line x1="255.01" y1="271.4" x2="252.9" y2="272.6" style="fill:none;stroke:#fff;stroke-linejoin:round;stroke-width:0.5px"></line><line x1="255.46" y1="284.99" x2="252.77" y2="283.53" style="fill:none;stroke:#fff;stroke-linejoin:round;stroke-width:0.5px"></line><line x1="247.12" y1="286.42" x2="245.94" y2="284.83" style="fill:none;stroke:#fff;stroke-linejoin:round;stroke-width:0.5px"></line><line x1="241.7" y1="286.92" x2="241.67" y2="284.62" style="fill:none;stroke:#fff;stroke-linejoin:round;stroke-width:0.5px"></line><line x1="236.1" y1="286.92" x2="237.32" y2="285.01" style="fill:none;stroke:#fff;stroke-linejoin:round;stroke-width:0.5px"></line><line x1="228.17" y1="285.88" x2="230.37" y2="284.46" style="fill:none;stroke:#fff;stroke-linejoin:round;stroke-width:0.5px"></line><path d="M244.76,262.55a2.86,2.86,0,0,0-3-2.83,3,3,0,0,0-2.92,3.06,2.85,2.85,0,0,0,3,2.83A3,3,0,0,0,244.76,262.55Z" style="fill:#fff;stroke:#263238;stroke-linejoin:round"></path><polygon points="245.48 261.46 238.12 261.75 238.17 265.87 245.53 265.59 245.48 261.46" style="fill:#fff;stroke:#263238;stroke-linejoin:round"></polygon><line x1="240.05" y1="261.62" x2="240.1" y2="265.64" style="fill:none;stroke:#263238;stroke-linejoin:round;stroke-width:0.5px"></line><line x1="243.23" y1="261.5" x2="243.29" y2="265.52" style="fill:none;stroke:#263238;stroke-linejoin:round;stroke-width:0.5px"></line><line x1="240.62" y1="277.25" x2="237.21" y2="271.7" style="fill:none;stroke:#263238;stroke-linejoin:round"></line><line x1="241.28" y1="278.71" x2="237.11" y2="283.77" style="fill:none;stroke:#263238;stroke-linejoin:round"></line><line x1="238.07" y1="278.94" x2="241.13" y2="278.82" style="fill:#fff;stroke:#263238;stroke-linejoin:round"></line><line x1="242.91" y1="278.64" x2="253.97" y2="278.22" style="fill:#fff;stroke:#263238;stroke-linejoin:round;stroke-width:0.5px"></line><path d="M242.91,278.64a1.58,1.58,0,0,0-1.65-1.56,1.68,1.68,0,0,0-1.61,1.69,1.57,1.57,0,0,0,1.65,1.56A1.68,1.68,0,0,0,242.91,278.64Z" style="fill:#fff;stroke:#263238;stroke-linejoin:round"></path><path d="M231,281.37l-2.07-.74-1.87.88V281l1.38-.65-1.4-.5v-.51l1.93.76,2-.94v.51l-1.47.69,1.49.5Z" style="fill:#fff"></path><path d="M231,278.76l-3.94.15v-.54l3.94-.15Z" style="fill:#fff"></path><path d="M231,277.55l-3.93.15v-.54L231,277Z" style="fill:#fff"></path></g><g id="freepik--hand-1--inject-87"><path d="M55.36,342.3s24.1-13.82,85.13-20l-28.76,18.77-37.4,6.23Z" style="fill:#263238;stroke:#263238;stroke-linejoin:round"></path><path d="M59.57,314.49a324.82,324.82,0,0,1,42.19-10c22.86-3.74,35-1.93,35-1.93L81,321.55Z" style="fill:#fff;stroke:#263238;stroke-linejoin:round"></path><path d="M128.09,318.54l-3.46-78.72s15.12-24.27,16.14-35-5.7-29.12-15.67-35.05-19.12-6.47-24.81-11.86a50.15,50.15,0,0,1-8.68-10.79s4.58,5.93,8.53,2.16,2.94-5.39,8.4-18.87,7.68-27,1.87-29.66-27.23-5.93-29.9-6.47-10.86,1.62-12.67,5.93-17.7,57.7-20.71,64.71-2.62,10.24.32,16.71,20.71,55,24.22,60.93,1.38,89,1.38,89Z" style="fill:#fff;stroke:#263238;stroke-linejoin:round"></path><path d="M102.11,177.27s7.86-18.87,7.61-25.34-5.25-27-3.66-38.29,6.88-18.21,15.21-14.56c6.22,2.74,7.58,23.19,10,29.12s1.53,14,2.73,23.19,10.8,35.59,8.37,41.52S133,209.62,133,209.62" style="fill:#fff;stroke:#263238;stroke-linejoin:round"></path><path d="M91.61,147.07s1.51-9.7,1.88-17.79l.36-8.09s1.55,1.62,9.68.54" style="fill:none;stroke:#263238;stroke-linejoin:round"></path><path d="M68,193.49c.53,2.47.81,4.27.81,4.27" style="fill:none;stroke:#263238;stroke-linejoin:round"></path><path d="M101.91,98s-27,0-30.42,4.85-2.64,10.78-2.39,17.25-4.94,37.75-6.82,43.68-2.74,12.94.86,16.71c1.83,1.92,3.26,6.32,4.23,10.19" style="fill:none;stroke:#263238;stroke-linejoin:round"></path><path d="M67.84,100.16s-6.77-5.39-9.88,3.78-10.83,60.93-10.83,60.93S61.09,130.36,67.84,100.16Z" style="fill:#fff;stroke:#263238;stroke-linejoin:round"></path><path d="M93.63,231.39a33.59,33.59,0,0,0,4.38.88" style="fill:none;stroke:#263238;stroke-linejoin:round"></path><path d="M78.5,222.56a33,33,0,0,0,11.72,7.69" style="fill:none;stroke:#263238;stroke-linejoin:round"></path><path d="M112.5,103.28a9.74,9.74,0,0,0-2.35,8.67c1,5.45,1.43,8.57,1.43,8.57a34,34,0,0,0,8.85-.26c5-.78,6.08-2.34,6.08-2.34s-2.33-11.69-3.26-14.28" style="fill:none;stroke:#263238;stroke-linejoin:round"></path><path d="M115.41,101.49s4.23-1.26,6,.44" style="fill:none;stroke:#263238;stroke-linejoin:round"></path><path d="M136.72,302.58l-24.21,6.67A127.09,127.09,0,0,1,83,313.73l-23.43.76L60,349.86l77.06-15Z" style="fill:#fff;stroke:#263238;stroke-linejoin:round"></path><path d="M150,450.78l-9.51-128.46-18.07,8a136.14,136.14,0,0,1-51.07,11.55l-16,.45L52.9,450.78Z" style="fill:#263238;stroke:#263238;stroke-linejoin:round"></path></g><g id="freepik--wristwatch-1--inject-87"><path d="M92,268.4a128.89,128.89,0,0,0,34.72-4.32l1.69,24.05s-22.8,6.47-35.58,2.77Z" style="fill:#263238;stroke:#263238;stroke-linejoin:round"></path><path d="M95.89,278.49c1.81,10.77-2.33,20.69-9.24,22.15s-14-6.1-15.79-16.87,2.32-20.7,9.24-22.16S94.07,267.71,95.89,278.49Z" style="fill:#fff;stroke:#263238;stroke-linejoin:round"></path><path d="M97,281.18c0,1.11-.56,2.05-1.29,2.09s-1.34-.82-1.35-1.93.56-2.06,1.29-2.1S97,280.06,97,281.18Z" style="fill:#fff;stroke:#263238;stroke-linejoin:round"></path><path d="M98.36,281.1c0,1.11-.56,2-1.29,2.1s-1.34-.83-1.35-1.94.56-2.06,1.29-2.1S98.35,280,98.36,281.1Z" style="fill:#fff;stroke:#263238;stroke-linejoin:round"></path><path d="M92.06,279.56c1.81,10.78-2.32,20.7-9.23,22.16s-14-6.1-15.79-16.88,2.32-20.69,9.23-22.15S90.25,268.79,92.06,279.56Z" style="fill:#fff;stroke:#263238;stroke-linejoin:round"></path><path d="M128.26,263.8a1.83,1.83,0,0,0-1.49,1.84l.81,23.55a1.77,1.77,0,0,0,2.08,1.69h0a2,2,0,0,0,1.64-2l-1.08-23.53a1.64,1.64,0,0,0-2-1.54Z" style="fill:#fff;stroke:#263238;stroke-linejoin:round"></path><ellipse cx="79.56" cy="282.5" rx="11.15" ry="18.66" transform="translate(-30.13 10.28) rotate(-6.22)" style="fill:#fff;stroke:#263238;stroke-linejoin:round"></ellipse><line x1="77.49" y1="266.76" x2="77.85" y2="269.51" style="fill:none;stroke:#263238;stroke-linejoin:round"></line><line x1="73.08" y1="269.67" x2="74.21" y2="271.91" style="fill:none;stroke:#263238;stroke-linejoin:round"></line><line x1="70.41" y1="276.02" x2="72.01" y2="277.15" style="fill:none;stroke:#263238;stroke-linejoin:round"></line><line x1="70.19" y1="284.11" x2="71.83" y2="283.83" style="fill:none;stroke:#263238;stroke-linejoin:round"></line><line x1="72.48" y1="291.76" x2="73.72" y2="290.15" style="fill:none;stroke:#263238;stroke-linejoin:round"></line><line x1="76.67" y1="296.94" x2="77.17" y2="294.42" style="fill:none;stroke:#263238;stroke-linejoin:round"></line><line x1="81.63" y1="298.24" x2="81.27" y2="295.49" style="fill:none;stroke:#263238;stroke-linejoin:round"></line><line x1="86.03" y1="295.32" x2="84.9" y2="293.09" style="fill:none;stroke:#263238;stroke-linejoin:round"></line><line x1="88.71" y1="288.97" x2="87.11" y2="287.84" style="fill:none;stroke:#263238;stroke-linejoin:round"></line><line x1="88.93" y1="280.89" x2="87.29" y2="281.17" style="fill:none;stroke:#263238;stroke-linejoin:round"></line><line x1="86.64" y1="273.23" x2="85.4" y2="274.85" style="fill:none;stroke:#263238;stroke-linejoin:round"></line><line x1="82.45" y1="268.06" x2="81.95" y2="270.58" style="fill:none;stroke:#263238;stroke-linejoin:round"></line><polyline points="75.02 283.28 79.83 283.99 83.57 275.42" style="fill:none;stroke:#263238;stroke-linejoin:round"></polyline></g></svg>